<svg width="36" height="39" viewBox="0 0 36 39" fill="none" xmlns="http://www.w3.org/2000/svg">
<g clip-path="url(#clip0_7_386)">
<path d="M9.31695 10.317C8.85835 9.90438 8.26759 9.7053 7.67386 9.76329C7.08014 9.82128 6.53177 10.1316 6.14869 10.6264L0.524026 17.9385C0.185515 18.3761 0 18.9289 0 19.4999C0 20.0709 0.185515 20.6237 0.524026 21.0613L6.14869 28.3734C6.33738 28.6211 6.5694 28.8259 6.83141 28.9761C7.09341 29.1263 7.38024 29.2189 7.6754 29.2486C7.97056 29.2783 8.26823 29.2445 8.55129 29.1492C8.83436 29.0538 9.09724 28.8988 9.32481 28.6931C9.55239 28.4873 9.74018 28.2348 9.87739 27.9501C10.0146 27.6655 10.0985 27.3542 10.1243 27.0343C10.1501 26.7144 10.1173 26.3921 10.0277 26.086C9.93816 25.7799 9.79363 25.496 9.60244 25.2505L5.17755 19.5L9.60255 13.7494C9.98468 13.2531 10.1693 12.6128 10.1157 11.9691C10.0621 11.3255 9.77484 10.7312 9.31695 10.317Z" fill="#0047FF"/>
<path d="M20.6893 4.92342C20.1048 4.80354 19.5003 4.93686 19.0056 5.29473C18.511 5.65259 18.1657 6.20643 18.0439 6.83718L13.5442 31.2106C13.4858 31.5245 13.4853 31.8478 13.5425 32.1619C13.5998 32.476 13.7138 32.7748 13.8779 33.041C14.0421 33.3073 14.2531 33.5358 14.499 33.7134C14.7449 33.8911 15.0207 34.0144 15.3107 34.0762C15.4567 34.1088 15.6055 34.1248 15.7545 34.1239C16.2741 34.123 16.7774 33.9271 17.1788 33.5696C17.5802 33.2121 17.8548 32.7149 17.956 32.1628L22.4558 7.78923C22.5142 7.47534 22.5147 7.15205 22.4575 6.83792C22.4002 6.5238 22.2862 6.22501 22.1221 5.95873C21.958 5.69245 21.7469 5.46391 21.501 5.28624C21.2551 5.10858 20.9793 4.98527 20.6893 4.92342Z" fill="#0047FF"/>
<path d="M35.476 17.9385L29.8513 10.6264C29.6626 10.3788 29.4306 10.174 29.1686 10.0238C28.9066 9.87356 28.6198 9.78094 28.3246 9.75123C28.0295 9.72153 27.7318 9.75531 27.4487 9.85066C27.1657 9.946 26.9028 10.101 26.6752 10.3068C26.4476 10.5126 26.2598 10.765 26.1226 11.0497C25.9854 11.3344 25.9015 11.6456 25.8757 11.9655C25.8499 12.2854 25.8827 12.6077 25.9723 12.9138C26.0619 13.22 26.2064 13.5039 26.3976 13.7493L30.8225 19.5L26.3975 25.2506C26.2063 25.496 26.0617 25.78 25.9722 26.0861C25.8826 26.3922 25.8498 26.7145 25.8756 27.0344C25.9014 27.3543 25.9853 27.6656 26.1225 27.9502C26.2597 28.2349 26.4475 28.4874 26.6751 28.6931C26.9027 28.8989 27.1656 29.0539 27.4486 29.1493C27.7317 29.2446 28.0293 29.2784 28.3245 29.2487C28.6197 29.219 28.9065 29.1264 29.1685 28.9762C29.4305 28.826 29.6625 28.6211 29.8512 28.3735L35.476 21.0613C35.8145 20.6237 36 20.0709 36 19.4999C36 18.9289 35.8145 18.3762 35.476 17.9385Z" fill="#0047FF"/>
</g>
<defs>
<clipPath id="clip0_7_386">
<rect width="36" height="39" fill="white"/>
</clipPath>
</defs>
</svg>
