<svg width="126" height="131" viewBox="0 0 126 131" fill="none" xmlns="http://www.w3.org/2000/svg">
<path d="M63 116.672C90.1828 116.672 112.219 93.7614 112.219 65.5C112.219 37.2386 90.1828 14.3281 63 14.3281C35.8172 14.3281 13.7812 37.2386 13.7812 65.5C13.7812 93.7614 35.8172 116.672 63 116.672Z" fill="#F0DB4F"/>
<path d="M47.6438 45.6453H56.2078V70.7195C56.2078 81.9773 50.9906 85.9687 42.7219 85.9687C40.6547 85.9687 38.0953 85.6617 36.4219 85.0476L37.4062 77.7812C38.5875 78.1906 40.1625 78.4976 41.8359 78.4976C45.4781 78.4976 47.7422 76.7578 47.7422 70.7195L47.6438 45.6453Z" fill="#323330"/>
<path d="M63.7875 76.1438C66.0516 77.3719 69.6937 78.6 73.3359 78.6C77.2734 78.6 79.3406 76.8602 79.3406 74.1992C79.3406 71.743 77.5687 70.3102 72.9422 68.6727C66.6422 66.3187 62.4094 62.6344 62.4094 56.8008C62.4094 50.1484 67.9219 45.0312 76.8797 45.0312C81.2109 45.0312 84.3609 45.9523 86.625 47.0781L84.6562 54.2422C83.1797 53.5258 80.4234 52.4 76.7812 52.4C73.0406 52.4 71.2688 54.2422 71.2688 56.1867C71.2688 58.7453 73.3359 59.8711 78.3562 61.8156C85.05 64.3742 88.2 68.0586 88.2 73.6875C88.2 80.3398 83.3766 85.9688 72.8438 85.9688C68.5125 85.9688 64.1813 84.7406 62.0156 83.5125L63.7875 76.1438Z" fill="#323330"/>
</svg>
