<svg width="63" height="56" viewBox="0 0 63 56" fill="none" xmlns="http://www.w3.org/2000/svg">
<path d="M63 52.5C63 54.432 61.236 56 59.0625 56H3.9375C1.764 56 0 54.432 0 52.5V3.5C0 1.568 1.764 0 3.9375 0H59.0625C61.236 0 63 1.568 63 3.5V52.5Z" fill="#007BB5"/>
<path d="M21.6562 19.25H13.7812V43.75H21.6562V19.25Z" fill="white"/>
<path d="M40.3574 19.25C34.8626 19.25 33.9176 21.0315 33.4688 22.75V19.25H25.5938V43.75H33.4688V29.75C33.4688 27.4803 34.8528 26.25 37.4062 26.25C39.8987 26.25 41.3438 27.454 41.3438 29.75V43.75H49.2188V31.5C49.2188 24.5 48.193 19.25 40.3574 19.25Z" fill="white"/>
<path d="M17.7188 17.5C19.8934 17.5 21.6562 15.933 21.6562 14C21.6562 12.067 19.8934 10.5 17.7188 10.5C15.5441 10.5 13.7812 12.067 13.7812 14C13.7812 15.933 15.5441 17.5 17.7188 17.5Z" fill="white"/>
</svg>
