<svg width="158" height="55" viewBox="0 0 158 55" fill="none" xmlns="http://www.w3.org/2000/svg">
<path d="M143.866 23.3561C143.743 23.3937 143.589 23.7328 143.589 23.9588C143.558 25.2773 143.527 28.7431 143.527 31.1163C143.527 31.1917 143.62 31.3047 143.681 31.3047C144.082 31.3424 145.039 31.38 145.872 31.38C147.014 31.38 147.693 31.1917 148.063 31.0033C149.02 30.4006 149.483 29.1198 149.483 27.7259C149.483 24.5615 147.662 23.3184 144.947 23.3184C144.792 23.2431 144.268 23.2431 143.866 23.3561ZM150.779 38.0102C150.779 34.7705 148.835 32.9622 145.286 32.9622C145.132 32.9622 143.99 32.9246 143.743 32.9999C143.65 33.0376 143.558 33.1129 143.558 33.1883C143.558 35.5239 143.527 39.2157 143.62 40.6472C143.681 41.2876 144.052 42.154 144.514 42.4177C145.008 42.7568 146.088 42.7944 146.86 42.7944C148.927 42.7944 150.779 41.3629 150.779 38.0102ZM138.373 21.5479C138.651 21.5479 139.454 21.6609 141.521 21.6609C143.465 21.6609 145.039 21.5855 146.952 21.5855C149.298 21.5855 152.507 22.6026 152.507 26.8595C152.507 28.9691 151.304 30.6266 149.73 31.4554C149.637 31.4931 149.637 31.5684 149.73 31.5684C151.982 32.2465 153.957 33.9417 153.957 37.1814C153.957 40.3081 152.353 42.3424 150.007 43.5855C148.588 44.3389 146.829 44.6026 145.008 44.6026C143.65 44.6026 139.978 44.4143 137.911 44.4896C137.695 44.3766 138.096 43.2088 138.281 43.0205C138.775 42.9828 139.145 42.9451 139.639 42.7568C140.348 42.5307 140.441 42.267 140.564 40.9109C140.626 39.7807 140.626 35.7122 140.626 32.8115C140.626 28.8561 140.657 26.1437 140.626 24.8629C140.595 23.8458 140.318 23.5068 139.7 23.3184C139.238 23.2054 138.497 23.0924 137.88 22.9794C137.756 22.791 138.219 21.6609 138.373 21.5479ZM122.913 41.928C123.561 42.5684 124.826 42.7944 125.937 42.7944C127.388 42.7944 128.838 42.4554 130.227 40.9109C131.646 39.3287 132.634 36.9177 132.634 33.0376C132.634 29.3458 131.492 26.3321 129.116 24.5615C127.789 23.5444 126.061 23.13 124.086 23.13C123.499 23.13 122.944 23.1677 122.573 23.3561C122.481 23.4314 122.296 23.7328 122.296 23.8835C122.234 24.5239 122.234 29.5718 122.234 32.5479C122.234 35.5992 122.234 39.8561 122.296 40.3458C122.327 40.8355 122.512 41.5889 122.913 41.928ZM116.803 21.5479C117.327 21.5479 119.272 21.6609 120.197 21.6609C121.895 21.6609 123.098 21.5479 126.277 21.5479C128.961 21.5479 131.214 22.4143 132.819 24.1095C134.763 26.1814 135.812 29.0068 135.812 32.5102C135.812 37.4451 133.961 40.3081 132.109 41.928C130.257 43.5855 127.85 44.565 124.394 44.565C122.573 44.565 119.426 44.4896 116.834 44.452H116.803C116.679 44.1506 117.019 43.0205 117.235 42.9828C117.945 42.8698 118.13 42.8698 118.469 42.6814C119.025 42.4177 119.148 42.041 119.21 40.8355C119.302 38.5752 119.272 35.8629 119.272 32.7739C119.272 30.5889 119.302 26.2944 119.241 24.9006C119.148 23.7705 118.747 23.4691 117.945 23.2807C117.543 23.1677 117.019 23.0547 116.247 22.9417C116.186 22.7533 116.679 21.7362 116.803 21.5479Z" fill="#8E714E"/>
<path d="M84.3387 43.2092C83.6598 43.0961 83.1969 42.9831 82.5797 42.6441C82.4871 42.5687 82.3637 42.2674 82.3637 42.1167C82.302 40.9866 82.302 37.7092 82.302 35.4866C82.302 33.716 82.0551 32.1715 81.4379 31.079C80.7281 29.8359 79.6789 29.1201 78.3211 29.1201C77.1485 29.1201 75.5438 30.0996 74.2477 31.4934C74.2168 31.5311 74.0008 31.7571 74.0317 31.3804C74.0317 31.0037 74.0934 30.2879 74.1242 29.7982C74.1551 29.3461 73.9391 29.1201 73.9391 29.1201C73.075 29.6475 70.668 30.3256 69.7731 30.4386C69.125 30.5893 68.9707 31.3427 69.6496 31.6064H69.6805C70.3903 31.8701 70.884 32.1715 71.2543 32.4729C71.532 32.7366 71.5012 33.1133 71.5012 33.377C71.532 35.8256 71.532 39.5927 71.4395 41.6646C71.4086 42.4934 71.2234 42.7948 70.7297 42.9078L70.7914 42.8701C70.4211 42.9831 70.1125 43.0585 69.6496 43.1338C69.4953 43.3222 69.4953 44.377 69.6496 44.603C69.9582 44.603 71.5012 44.49 72.7973 44.49C74.5563 44.49 75.482 44.603 75.9449 44.603C76.1301 44.3393 76.1918 43.3598 76.0684 43.1338C75.5438 43.0961 75.1735 43.0208 74.834 42.9078C74.3402 42.7948 74.2168 42.4934 74.186 41.7777C74.1242 40.0448 74.1242 36.3907 74.1242 33.8667C74.1242 33.1886 74.2785 32.8496 74.4328 32.6612C75.05 32.0208 76.0375 31.5311 76.9324 31.5311C77.7965 31.5311 78.352 31.8701 78.784 32.2845C79.3703 32.8872 79.5555 33.716 79.6481 34.3564C79.7715 35.7503 79.7406 38.5379 79.7406 40.9866C79.7406 42.305 79.6481 42.6064 79.2469 42.7948C79.0617 42.9078 78.568 43.0208 78.0125 43.0961C77.8274 43.3222 77.8891 44.3393 78.0125 44.5653C78.784 44.5653 79.7098 44.4523 81.0367 44.4523C82.7031 44.4523 83.7832 44.5653 84.2152 44.5653C84.4004 44.4146 84.4621 43.4729 84.3387 43.2092ZM91.7758 30.7023C90.3563 30.7023 89.4613 32.0585 89.4613 34.1304C89.4613 36.2776 90.2328 38.7263 92.4547 38.7263C92.825 38.7263 93.5348 38.5379 93.8434 38.0859C94.368 37.4831 94.7074 36.3153 94.7074 35.0722C94.7074 32.3222 93.5965 30.7023 91.7758 30.7023ZM91.5906 45.1681C91.066 45.1681 90.6649 45.3564 90.4488 45.5448C89.307 46.4112 88.8133 47.2777 88.8133 48.2948C88.8133 49.2366 89.1219 49.99 89.7391 50.6681C90.5106 51.4968 91.5906 51.8735 92.9485 51.8735C95.6949 51.8735 96.8985 50.0653 96.8985 48.2948C96.8985 47.0516 96.3738 46.2229 95.3555 45.7708C94.584 45.3564 93.2262 45.1681 91.5906 45.1681ZM91.7758 53.6818C90.1402 53.6818 88.9676 53.2674 87.9492 52.2879C86.9617 51.3838 86.5297 49.99 86.5297 49.0482C86.5297 48.7845 86.5914 48.0687 87.0543 47.4283C87.3629 47.0516 87.9801 46.2982 89.5231 45.0174C89.5848 44.9797 89.6156 44.942 89.6156 44.9044C89.6156 44.829 89.5539 44.7914 89.5231 44.7537C88.2578 44.1509 87.8875 43.2092 87.7641 42.6818V42.5687C87.7332 42.3804 87.6715 42.192 87.9184 41.966C88.1035 41.8153 88.3813 41.5893 88.659 41.3633C89.1219 41.0242 89.5848 40.6852 89.8934 40.3838C89.9551 40.3085 89.9551 40.2708 89.9551 40.1955C89.9551 40.1201 89.8934 40.0824 89.8625 40.0448C87.9801 39.2914 87.0543 37.5961 87.0543 35.0345C87.0543 33.377 87.6715 31.8701 88.7824 30.8907C89.5231 30.1749 91.4055 29.2708 92.6399 29.2708H92.7324C93.9977 29.3085 94.6766 29.6475 95.6949 30.0619C96.2196 30.2879 96.7442 30.4009 97.4539 30.4009C98.5031 30.4009 98.966 30.0242 99.3363 29.5345C99.3672 29.6098 99.4289 29.7605 99.4289 30.1749C99.4598 30.5893 99.3363 31.2297 99.0895 31.6818C98.8735 32.0585 98.3797 32.3222 97.9168 32.3222H97.7934C97.2996 32.2468 97.0836 32.2092 97.0836 32.2092L96.991 32.2845C96.9602 32.3598 96.991 32.3975 97.0219 32.5105L97.0527 32.5859C97.1145 32.8872 97.207 33.7537 97.207 33.9797C97.207 36.6544 96.3121 37.8598 95.3863 38.7263C94.4606 39.555 93.4422 40.0824 92.2387 40.1955C92.2078 40.1955 92.1153 40.1955 91.8684 40.2331C91.7449 40.2331 91.5598 40.2708 91.5289 40.2708H91.4981C91.282 40.3461 90.7574 40.6475 90.7574 41.2126C90.7574 41.7023 91.0043 42.305 92.1461 42.3804C92.393 42.4181 92.6399 42.4181 92.8867 42.4557C94.4297 42.5687 96.3121 42.7571 97.207 43.0961C98.4414 43.6612 99.2129 44.9797 99.2129 46.5996C99.2129 49.0105 97.7934 51.2708 95.4172 52.7023C94.1828 53.3427 93.041 53.6818 91.7758 53.6818ZM107.082 30.853C106.527 30.853 106.002 31.0037 105.632 31.3427C104.582 32.1338 104.058 33.716 104.058 35.9763C104.058 40.2708 105.817 43.2845 108.347 43.2845C109.088 43.2845 109.674 43.0208 110.199 42.4934C110.97 41.7023 111.371 40.1201 111.371 37.9352C111.371 33.716 109.613 30.853 107.082 30.853ZM107.545 44.8667C102.978 44.8667 101.342 40.7605 101.342 36.9557C101.342 34.2811 102.237 32.2092 103.996 30.74C105.261 29.7982 106.773 29.2708 108.1 29.2708C111.588 29.2708 114.025 32.3222 114.025 36.692C114.025 39.6681 113.069 42.0414 111.217 43.4729C110.353 44.1886 108.81 44.8667 107.545 44.8667ZM59.7438 30.853C59.1883 30.853 58.6637 31.0037 58.2934 31.3427C57.2442 32.1338 56.7195 33.716 56.7195 35.9763C56.7195 40.2708 58.4785 43.2845 61.009 43.2845C61.7496 43.2845 62.336 43.0208 62.8606 42.4934C63.632 41.7023 64.0332 40.1201 64.0332 37.9352C64.0332 33.716 62.3051 30.853 59.7438 30.853ZM60.2375 44.8667C55.6703 44.8667 54.0348 40.7605 54.0348 36.9557C54.0348 34.2811 54.9297 32.2092 56.6887 30.74C57.9539 29.7982 59.466 29.2708 60.793 29.2708C64.2801 29.2708 66.718 32.3222 66.718 36.692C66.718 39.6681 65.7613 42.0414 63.9098 43.4729C63.0457 44.1886 61.5028 44.8667 60.2375 44.8667ZM29.5633 44.5276C29.5016 44.4146 29.4707 44.1509 29.4707 43.7742C29.4707 43.5105 29.5324 43.3598 29.5633 43.2845C30.1188 43.1715 30.4274 43.0961 30.7359 42.9831C31.2606 42.8324 31.4766 42.4557 31.5074 41.627C31.6 39.6681 31.6 35.9386 31.5692 33.3393V33.264C31.5692 32.9626 31.5692 32.6235 31.2606 32.3598C30.8285 32.0208 30.3348 31.7194 29.6559 31.4934C29.409 31.3804 29.2547 31.2297 29.2856 31.0413C29.2856 30.853 29.4399 30.627 29.8102 30.5516C30.7051 30.4386 32.9887 29.7605 33.9145 29.2708C33.9762 29.3461 34.0379 29.5345 34.0379 29.7982L34.007 30.1749C33.9762 30.5516 33.9453 30.966 33.9453 31.3804C33.9453 31.4934 34.0379 31.6064 34.1613 31.6064C34.2231 31.6064 34.2539 31.5687 34.3156 31.5311C36.0438 29.9112 37.5867 29.3085 38.3891 29.3085C39.716 29.3085 40.7344 30.0619 41.5059 31.6441C41.5676 31.7571 41.5985 31.7571 41.691 31.7571C41.7527 31.7571 41.8145 31.7194 41.8453 31.6441C43.4192 30.1749 45.0238 29.2708 46.0731 29.2708C48.5727 29.2708 50.0539 31.5311 50.0539 35.3735C50.0539 36.466 50.0539 37.8598 50.0231 39.1407C50.0231 40.2708 49.9922 41.3256 49.9922 42.079C49.9922 42.2297 50.1774 42.7571 50.486 42.8701C50.8563 43.0961 51.3809 43.2092 52.0289 43.3222H52.0598C52.1215 43.5482 51.9981 44.4146 51.9055 44.5653C51.7512 44.5653 51.5043 44.5653 51.2266 44.5276C50.702 44.49 49.9922 44.4523 49.1899 44.4523C47.5234 44.4523 46.6594 44.49 45.8262 44.5653C45.7645 44.3016 45.7336 43.5105 45.8262 43.3222C46.3199 43.2092 46.536 43.1338 46.8445 43.0208C47.3692 42.8324 47.5235 42.5311 47.5543 41.6646C47.5543 41.0242 47.6469 35.7503 47.4926 34.4694C47.3383 33.1509 46.536 31.6064 44.7461 31.6064C44.0672 31.6064 43.018 31.9455 41.9996 32.8872C41.9379 32.9626 41.907 33.1133 41.907 33.2263V33.264C41.9996 33.942 41.9996 34.7331 41.9996 35.9386V38.0859C41.9996 39.555 41.9688 40.9489 41.9996 41.966C41.9996 42.6818 42.3391 42.8324 42.6477 42.9831C42.802 43.0208 42.9254 43.0585 43.0488 43.0961C43.2957 43.1715 43.5426 43.2092 43.9129 43.3222C43.9746 43.4352 43.9746 43.8872 43.882 44.2263C43.8512 44.4146 43.7895 44.5277 43.7895 44.5653C42.8637 44.5277 41.9379 44.49 40.5801 44.49C40.1789 44.49 39.4692 44.5276 38.8828 44.5276C38.3891 44.5276 37.957 44.5653 37.6793 44.5653C37.6484 44.49 37.5867 44.264 37.5867 43.9249C37.5867 43.6235 37.6484 43.3975 37.6793 43.3222C37.8027 43.2845 37.9262 43.2468 38.0496 43.2468C38.3582 43.1715 38.636 43.1338 38.9137 43.0585C39.3766 42.9078 39.5309 42.6064 39.5617 41.8907C39.6543 40.2708 39.716 35.5619 39.5309 34.3941C39.2223 32.5105 38.3274 31.5311 36.9078 31.5311C36.0746 31.5311 35.0254 32.0208 34.1613 32.8119C34.0379 32.9249 33.9145 33.264 33.9145 33.5653V35.4866C33.9145 37.8598 33.9145 40.7982 33.9453 42.079C33.9762 42.4557 34.0688 42.9455 34.686 43.0961C34.8094 43.1338 35.0254 43.2092 35.3031 43.2092L35.7969 43.3222C35.8586 43.5105 35.8277 44.3016 35.7043 44.5653C35.4266 44.5653 35.118 44.5276 34.7477 44.5276C34.1922 44.49 33.4516 44.4523 32.6492 44.4523C31.7235 44.4523 31.0445 44.49 30.4891 44.5276C30.1805 44.5276 29.8719 44.5276 29.5633 44.5276Z" fill="#442D22"/>
<path d="M15.4297 52.4009L14.3188 51.9488C14.3188 51.9488 14.4422 45.0927 12.4363 44.6029C11.1094 42.7194 12.6523 -35.9758 17.4664 44.3392C17.4664 44.3392 15.8 45.3564 15.5223 47.0892C15.2137 48.7844 15.4297 52.4009 15.4297 52.4009Z" fill="white"/>
<path d="M15.4297 52.4009L14.3188 51.9488C14.3188 51.9488 14.4422 45.0927 12.4363 44.6029C11.1094 42.7194 12.6523 -35.9758 17.4664 44.3392C17.4664 44.3392 15.8 45.3564 15.5223 47.0892C15.2137 48.7844 15.4297 52.4009 15.4297 52.4009Z" fill="#A6A385"/>
<path d="M16.016 45.7704C16.016 45.7704 25.6441 38.0478 23.3914 21.9622C21.2313 10.2841 16.0777 6.44164 15.5223 4.97246C14.9051 3.91767 14.3188 2.07178 14.3188 2.07178L14.7199 34.5821C14.7508 34.6574 13.9176 44.5649 16.016 45.7704Z" fill="white"/>
<path d="M16.016 45.7704C16.016 45.7704 25.6441 38.0478 23.3914 21.9622C21.2313 10.2841 16.0777 6.44164 15.5223 4.97246C14.9051 3.91767 14.3188 2.07178 14.3188 2.07178L14.7199 34.5821C14.7508 34.6574 13.9176 44.5649 16.016 45.7704Z" fill="#499D4A"/>
<path d="M13.7633 46.2227C13.7633 46.2227 4.72149 38.6884 5.2461 25.4282C5.77071 12.1679 12.1277 5.65076 13.3621 4.44529C14.1953 3.39049 14.2262 3.01378 14.2879 1.95898C14.8434 3.42816 14.7508 23.9967 14.8125 26.4453C15.0594 35.7501 14.3805 44.4521 13.7633 46.2227Z" fill="white"/>
<path d="M13.7633 46.2227C13.7633 46.2227 4.72149 38.6884 5.2461 25.4282C5.77071 12.1679 12.1277 5.65076 13.3621 4.44529C14.1953 3.39049 14.2262 3.01378 14.2879 1.95898C14.8434 3.42816 14.7508 23.9967 14.8125 26.4453C15.0594 35.7501 14.3805 44.4521 13.7633 46.2227Z" fill="#58AA50"/>
</svg>
