<svg width="118" height="113" viewBox="0 0 118 113" fill="none" xmlns="http://www.w3.org/2000/svg">
<path d="M58.9788 107.261C57.5693 107.261 56.1387 106.899 54.8977 106.214L41.9179 98.8609C39.9826 97.8132 40.9292 97.4508 41.5604 97.2491C44.1477 96.3828 44.6736 96.2018 47.4293 94.6907C47.7241 94.5298 48.1028 94.5898 48.3971 94.7715L58.3685 100.432C58.7262 100.633 59.2307 100.633 59.5674 100.432L98.4226 78.9568C98.7805 78.7553 99.0115 78.3525 99.0115 77.9497V34.9995C99.0115 34.5765 98.7805 34.1938 98.4019 33.9724L59.5677 12.5172C59.2102 12.3157 58.7264 12.3157 58.3688 12.5172L19.5557 33.9923C19.1768 34.1938 18.9457 34.5965 18.9457 35.0196V77.9497C18.9457 78.3525 19.1768 78.7553 19.5557 78.9369L30.2006 84.8193C35.9859 87.579 39.5199 84.3357 39.5199 81.0523V38.6659C39.5199 38.0616 40.0246 37.5983 40.6561 37.5983H45.5787C46.1887 37.5983 46.7144 38.0616 46.7144 38.6659V81.0724C46.7144 88.4455 42.507 92.6761 35.2076 92.6761C32.9563 92.6761 31.1893 92.6761 26.2668 90.3393L16.0849 84.7187C13.5603 83.3285 12.0037 80.7297 12.0037 77.9298V34.9995C12.0037 32.2196 13.5603 29.6007 16.0849 28.2107L54.8977 6.73542C57.3588 5.4059 60.6197 5.4059 63.0599 6.73542L101.916 28.2306C104.44 29.6206 105.997 32.2193 105.997 35.0196V77.9497C105.997 80.7297 104.44 83.3285 101.916 84.7387L63.0599 106.214C61.8186 106.899 60.4089 107.261 58.9788 107.261ZM90.3451 64.9359C90.3451 56.8977 84.665 54.7624 72.7373 53.2517C60.6617 51.7205 59.4418 50.9348 59.4418 48.2353C59.4418 45.9994 60.4727 43.0177 69.4133 43.0177C77.3866 43.0177 80.3317 44.6697 81.5516 49.827C81.6569 50.3104 82.1202 50.673 82.6454 50.673H87.695C88.01 50.673 88.3046 50.5523 88.5152 50.3305C88.7259 50.1091 88.8307 49.8067 88.8091 49.5044C88.0312 40.6206 81.8671 36.4906 69.4133 36.4906C58.327 36.4906 51.7216 40.9629 51.7216 48.4772C51.7216 56.6159 58.3058 58.8726 68.9293 59.8792C81.6569 61.0681 82.6454 62.8611 82.6454 65.2584C82.6454 69.4087 79.1538 71.1809 70.9703 71.1809C60.6833 71.1809 58.4321 68.7031 57.6748 63.8081C57.5907 63.2844 57.1277 62.9017 56.56 62.9017H51.5319C50.9009 62.9017 50.4174 63.3853 50.4174 63.969C50.4174 70.2348 53.9726 77.7087 70.9915 77.7087C83.2767 77.6884 90.3451 73.034 90.3451 64.9359Z" fill="#539E43"/>
</svg>
