<svg width="54" height="62" viewBox="0 0 54 62" fill="none" xmlns="http://www.w3.org/2000/svg">
<path d="M36.7801 54.4995C35.1303 54.4854 33.4876 54.2477 31.8864 53.7911C26.3566 52.2593 20.6624 48.3734 15.8551 42.8491C11.0479 37.3248 7.65914 30.7857 6.32496 24.4428C4.92012 17.7706 5.92207 12.0622 9.14309 8.36399L10.0628 7.30805C10.8972 6.35193 12.0279 5.81494 13.2068 5.81494C14.3857 5.81494 15.5164 6.35193 16.3508 7.30805L21.6359 13.3749C22.4691 14.3326 22.9372 15.6309 22.9372 16.9847C22.9372 18.3384 22.4691 19.6367 21.6359 20.5945L18.514 24.1776C20.0106 27.1929 22.0461 30.2105 24.4519 32.9727C26.8576 35.7348 29.488 38.0731 32.1131 39.7915L35.2339 36.2071C35.6468 35.7329 36.1369 35.3568 36.6764 35.1002C37.2158 34.8435 37.794 34.7115 38.378 34.7115C38.9619 34.7115 39.5401 34.8435 40.0796 35.1002C40.619 35.3568 41.1092 35.7329 41.522 36.2071L46.806 42.2739C47.6394 43.2312 48.1076 44.5295 48.1076 45.8831C48.1076 47.2367 47.6394 48.5349 46.806 49.4923L45.8852 50.5482C43.6145 53.1602 40.4715 54.4995 36.7801 54.4995ZM13.2068 9.44536C13.0384 9.4444 12.8715 9.48203 12.716 9.55606C12.5604 9.63008 12.4193 9.73901 12.3008 9.87645L11.3801 10.9324C8.96801 13.7018 8.26348 18.198 9.39621 23.5855C10.5954 29.2926 13.6825 35.2226 18.0879 40.2795C22.4933 45.3363 27.6571 48.8771 32.6289 50.2588C37.3222 51.5593 41.2362 50.7504 43.6482 47.981L44.5679 46.9251C44.8082 46.649 44.9432 46.2746 44.9432 45.8843C44.9432 45.494 44.8082 45.1196 44.5679 44.8435L39.285 38.7767C39.0445 38.5008 38.7185 38.3458 38.3785 38.3458C38.0385 38.3458 37.7125 38.5008 37.472 38.7767L33.5159 43.3189C33.2785 43.5916 32.9717 43.7705 32.6399 43.8297C32.308 43.8889 31.9684 43.8254 31.6702 43.6483C28.427 41.7229 25.1575 38.9196 22.2149 35.5411C19.2723 32.1625 16.836 28.4111 15.1548 24.6874C15.0004 24.3451 14.9449 23.9552 14.9963 23.5743C15.0477 23.1933 15.2033 22.841 15.4406 22.5683L19.3978 18.0261C19.6381 17.7499 19.7731 17.3756 19.7731 16.9853C19.7731 16.5949 19.6381 16.2206 19.3978 15.9445L14.1138 9.87645C13.995 9.73924 13.8537 9.63049 13.698 9.55648C13.5423 9.48248 13.3753 9.44471 13.2068 9.44536V9.44536Z" fill="#58AA50"/>
<path d="M38.4697 32.6628C38.0501 32.6628 37.6478 32.4715 37.3511 32.1308C37.0544 31.7902 36.8877 31.3282 36.8877 30.8464C36.8846 27.6599 35.7808 24.6048 33.8184 22.3515C31.856 20.0981 29.1953 18.8305 26.4199 18.8267C26.0003 18.8267 25.5979 18.6353 25.3013 18.2946C25.0046 17.954 24.8379 17.492 24.8379 17.0103C24.8379 16.5285 25.0046 16.0665 25.3013 15.7259C25.5979 15.3852 26.0003 15.1938 26.4199 15.1938C33.9367 15.1938 40.0518 22.2173 40.0518 30.8464C40.0518 31.3282 39.8851 31.7902 39.5884 32.1308C39.2917 32.4715 38.8893 32.6628 38.4697 32.6628Z" fill="#58AA50"/>
<path d="M45.1564 32.6624C44.7369 32.6624 44.3345 32.4711 44.0378 32.1304C43.7411 31.7898 43.5744 31.3278 43.5744 30.846C43.5744 19.9851 35.8752 11.1489 26.4199 11.1489C26.0003 11.1489 25.5979 10.9576 25.3013 10.6169C25.0046 10.2763 24.8379 9.81426 24.8379 9.33252C24.8379 8.85078 25.0046 8.38877 25.3013 8.04813C25.5979 7.70748 26.0003 7.51611 26.4199 7.51611C37.6239 7.51611 46.7385 17.9822 46.7385 30.846C46.7385 31.3278 46.5718 31.7898 46.2751 32.1304C45.9784 32.4711 45.576 32.6624 45.1564 32.6624Z" fill="#58AA50"/>
</svg>
