<svg width="121" height="114" viewBox="0 0 121 114" fill="none" xmlns="http://www.w3.org/2000/svg">
<path d="M60.3992 66.462C65.9903 66.462 70.5228 62.1917 70.5228 56.924C70.5228 51.6563 65.9903 47.386 60.3992 47.386C54.808 47.386 50.2755 51.6563 50.2755 56.924C50.2755 62.1917 54.808 66.462 60.3992 66.462Z" fill="#00D8FF"/>
<path d="M60.3992 78.7739C46.1817 78.7739 33.759 77.1969 24.4622 74.1949C18.4323 72.2569 13.31 69.6729 9.65984 66.7279C5.78784 63.6119 3.73083 60.2109 3.73083 56.9239C3.73083 50.6159 11.0715 44.4409 23.3933 40.4129C33.4767 37.1069 46.6253 35.2639 60.379 35.2639C73.8907 35.2639 86.8578 37.0499 96.8807 40.3179C102.749 42.2179 107.69 44.6879 111.199 47.4239C115.011 50.4259 117.027 53.7129 117.027 56.9239C117.027 63.4789 108.819 70.1099 95.59 74.2329C86.2327 77.1589 73.7293 78.7739 60.3992 78.7739ZM60.3992 39.8239C47.3513 39.8239 34.4447 41.6099 25.0067 44.7069C13.673 48.4309 8.591 53.5229 8.591 56.9239C8.591 60.4579 14.0562 66.0249 26.0352 69.8819C34.8278 72.7129 46.7262 74.2139 60.3992 74.2139C73.2252 74.2139 85.184 72.6939 94.0775 69.9009C106.52 66.0059 112.207 60.4389 112.207 56.9239C112.207 55.1189 110.755 52.9909 108.113 50.9199C105.068 48.5259 100.632 46.3409 95.3278 44.6119C85.789 41.5339 73.3865 39.8239 60.3992 39.8239Z" fill="#00D8FF"/>
<path d="M37.4293 104.462C35.3723 104.462 33.5573 104.044 32.0247 103.208C26.2368 100.054 24.2202 90.9719 26.6603 78.9069C28.6568 69.0079 33.5372 57.3799 40.414 46.1509C47.1698 35.1309 55.2768 25.4409 63.283 18.8859C67.9617 15.0479 72.7008 12.2359 76.9762 10.7539C81.6347 9.13892 85.668 9.13892 88.6123 10.7349C94.6422 14.0029 96.6387 24.0349 93.8153 36.8789C91.8188 45.9989 87.0595 56.9999 80.4045 67.8869C73.3058 79.4769 65.6425 88.8249 58.2413 94.9239C53.4417 98.8759 48.5008 101.764 43.9835 103.265C41.624 104.063 39.4057 104.462 37.4293 104.462ZM42.4912 47.2909L44.5885 48.4309C38.0747 59.0709 33.2548 70.4899 31.3995 79.7619C29.161 90.8769 31.3188 97.5649 34.4245 99.2559C35.1908 99.6739 36.1992 99.9019 37.4293 99.9019C41.4425 99.9019 47.7547 97.5079 55.055 91.5039C62.0528 85.7469 69.3733 76.7789 76.2098 65.6259C82.6228 55.1569 87.1805 44.6309 89.0762 35.9859C91.718 23.8829 89.4392 16.4729 86.1923 14.7059C84.5387 13.8129 81.8565 13.9269 78.6298 15.0479C74.899 16.3399 70.6842 18.8669 66.4492 22.3439C58.8463 28.5759 51.0822 37.8479 44.5885 48.4499L42.4912 47.2909Z" fill="#00D8FF"/>
<path d="M83.369 104.519C77.8836 104.519 70.9262 101.403 63.6662 95.5131C55.5592 88.9391 47.311 79.1541 40.414 67.9251C33.638 56.9051 28.798 45.4481 26.7612 35.6251C25.5713 29.8871 25.3495 24.6241 26.1158 20.3871C26.9628 15.7701 28.9593 12.4831 31.9238 10.8681C37.9335 7.58107 48.158 10.9631 58.564 19.6841C65.945 25.8591 73.689 35.2451 80.3642 46.1131C87.483 57.7031 92.2625 68.6281 94.1581 77.7101C95.3883 83.6001 95.59 89.0721 94.7228 93.5181C93.7952 98.2491 91.6978 101.612 88.6728 103.265C87.1603 104.101 85.3655 104.519 83.369 104.519ZM44.6087 65.6451C51.1427 76.2851 59.2497 85.9181 66.8323 92.0551C75.9275 99.4271 83.1471 101.023 86.273 99.3131C89.5198 97.5461 91.8995 90.3071 89.4392 78.6031C87.6241 70.0151 83.0463 59.5651 76.1896 48.4121C69.7565 37.9431 62.3553 28.9561 55.3575 23.1041C45.5565 14.8961 37.6108 13.0531 34.364 14.8201C32.7103 15.7131 31.4802 17.9741 30.8953 21.1661C30.2298 24.8521 30.4315 29.5641 31.5205 34.7511C33.4565 44.0801 38.0948 55.0431 44.6087 65.6451Z" fill="#00D8FF"/>
</svg>
