<svg width="103" height="98" viewBox="0 0 103 98" fill="none" xmlns="http://www.w3.org/2000/svg">
<path d="M71.3833 67.3912C75.1128 67.085 78.0053 63.9612 77.8165 60.2291C77.6191 56.4969 74.4046 53.4997 70.4863 53.4997H70.2246C66.1775 53.6263 63.0231 56.8644 63.1519 60.7231C63.2806 62.6791 64.1218 64.2716 65.272 65.4312C60.7743 73.7531 54.0235 79.8699 43.7965 85.0108C36.9169 88.4326 29.6511 89.723 22.5785 88.8042C16.6646 88.0121 12.0381 85.4967 9.20564 81.4624C4.96547 75.3415 4.57922 68.7387 8.11126 62.1319C10.6906 57.3585 14.5445 53.8713 17.1195 52.1563C16.4757 50.5679 15.7032 47.877 15.317 45.8598C-3.72086 58.8326 -1.78532 76.5706 3.99985 84.9537C8.30868 91.0705 17.1195 94.9823 26.7628 94.9823C29.3336 94.9823 32.0373 94.8026 34.6724 94.1901C51.3927 91.1317 64.0574 81.589 71.3232 67.5178L71.3833 67.3912ZM94.3351 52.0951C84.3742 40.9598 69.7096 34.843 52.9892 34.843H50.8005C49.7147 32.5808 47.2083 31.1721 44.3758 31.1721H44.1827C40.1357 31.1721 36.9813 34.4796 37.1143 38.3301C37.2431 41.997 40.5219 45.0595 44.4445 45.0595H44.7621C47.659 44.937 50.1653 43.222 51.191 40.7761H53.5729C63.4823 40.7761 72.8639 43.5282 81.4172 48.9101C87.9706 53.0097 92.67 58.3916 95.3051 64.8187C97.614 70.0781 97.4895 75.219 95.1119 79.5065C91.4468 86.2317 85.2711 89.7842 77.1084 89.7842C71.9627 89.7842 66.95 88.253 64.375 87.1546C62.8343 88.3714 60.2593 90.3926 58.3924 91.6176C64.0488 94.0595 69.7739 95.4682 75.3016 95.4682C87.8418 95.4682 97.159 88.743 100.7 82.2546C104.554 74.9127 104.236 62.5566 94.3952 51.9726L94.3351 52.0951ZM27.8529 69.5881C27.9774 73.259 31.2562 76.3174 35.1831 76.3174H35.4406C39.5563 76.1949 42.7064 72.9568 42.5133 69.0981C42.5133 65.4272 39.1701 62.3728 35.2475 62.3728H34.9857C34.7282 62.3728 34.3462 62.3728 34.0201 62.4912C28.6855 53.9244 26.4324 44.7451 27.2736 34.843C27.7843 27.3786 30.3593 20.8902 34.9857 15.5084C38.8439 10.9187 46.1097 8.65248 51.0623 8.53406C64.9501 8.28498 70.7395 24.749 71.1859 31.2946L77.6148 33.128C76.1342 13.0625 63.0231 2.53564 50.4829 2.53564C38.7151 2.53564 27.8529 10.6737 23.4754 22.6052C17.4971 38.5139 21.4197 53.806 28.7499 66.0437C28.1104 66.84 27.7242 68.2446 27.8529 69.5881Z" fill="#AD00FF"/>
</svg>
