<svg width="141" height="131" viewBox="0 0 141 131" fill="none" xmlns="http://www.w3.org/2000/svg">
<path d="M116.217 72.0992C111.785 72.1173 107.946 73.1103 104.74 74.5812C103.573 72.3929 102.365 70.4811 102.167 69.0473C101.931 67.3739 101.673 66.3815 101.95 64.396C102.227 62.41 103.474 59.5971 103.454 59.3952C103.435 59.1931 103.177 58.1817 100.624 58.1633C98.0718 58.1451 95.8756 58.6228 95.6181 59.2479C95.3604 59.8729 94.8663 61.2888 94.5694 62.7595C94.1142 64.9105 89.4637 72.5955 86.8318 76.6033C85.9613 75.041 85.2293 73.6617 85.0707 72.5587C84.8333 70.8854 84.576 69.8929 84.8531 67.9074C85.1301 65.9214 86.3766 63.1085 86.3567 62.9066C86.3369 62.7045 86.0797 61.6931 83.5274 61.6747C80.9745 61.6565 78.7785 62.1342 78.5208 62.7595C78.2635 63.3843 77.9865 64.8553 77.4721 66.2714C76.9579 67.6864 70.7638 80.4821 69.1412 83.8101C68.3098 85.5011 67.5979 86.8617 67.0832 87.7813C67.0045 87.9282 66.945 88.0203 66.9053 88.094C66.9646 88.0021 67.0045 87.9097 67.0045 87.9471C66.5691 88.7372 66.3116 89.1785 66.3116 89.1785V89.1967C65.9751 89.7849 65.5992 90.3179 65.4213 90.3179C65.3023 90.3179 65.0454 88.774 65.4807 86.6596C66.4105 82.2105 68.607 75.2984 68.5872 75.0589C68.5673 74.9302 69.0024 73.7354 67.1425 73.0916C65.3419 72.485 64.6887 73.4964 64.5307 73.4964C64.3726 73.4964 64.2536 73.8643 64.2536 73.8643C64.2536 73.8643 66.2524 66.0691 60.4147 66.0691C56.7737 66.0691 51.7082 69.7831 49.2151 73.1474C47.6517 73.938 44.2677 75.6477 40.7061 77.4676C39.3407 78.1664 37.9356 78.883 36.6099 79.5636C36.511 79.4712 36.4317 79.3794 36.3329 79.2875C29.2487 72.265 16.1687 67.301 16.7231 57.8693C16.9208 54.4313 18.2072 45.4048 41.8737 34.4474C61.2662 25.4757 76.7797 27.9394 79.4516 33.4178C83.29 41.2315 71.1599 55.7738 51.0159 57.8693C43.338 58.6599 39.3016 55.9022 38.2923 54.8729C37.2433 53.7883 37.0849 53.7328 36.6892 53.9352C36.036 54.266 36.4518 55.2222 36.6892 55.792C37.2829 57.2442 39.7562 59.8182 43.9714 61.1051C47.6712 62.2266 56.6751 62.8519 67.5583 58.9357C79.7873 54.56 89.3056 42.3709 86.5154 32.1677C83.6662 21.799 65.1643 18.3976 47.652 24.1703C37.2237 27.6083 25.9446 33.0136 17.8313 40.0546C8.19454 48.4383 6.65125 55.7367 7.2841 58.7888C9.5401 69.6171 25.6078 76.677 32.039 81.8981C31.7223 82.0636 31.4254 82.2107 31.1486 82.3578C27.9232 83.8467 15.6744 89.8034 12.6071 96.0916C9.14464 103.225 13.1808 108.335 15.8325 109.034C24.1039 111.167 32.5732 107.324 37.1246 101.018C41.6754 94.7125 41.1216 86.4762 39.0242 82.7255C39.0041 82.6705 38.9648 82.6342 38.9452 82.5784C39.7761 82.1191 40.6267 81.6593 41.478 81.1998C43.1201 80.2989 44.7232 79.4712 46.1279 78.7548C45.3362 80.7406 44.7626 83.1295 44.4657 86.5864C44.1096 90.6308 45.9104 95.8705 48.2454 97.9297C49.274 98.8306 50.5207 98.8493 51.2926 98.8493C54.0234 98.8493 55.25 96.753 56.6154 94.2527C58.2975 91.2003 59.7815 87.6521 59.7815 87.6521C59.7815 87.6521 57.9215 97.2496 63.0069 97.2496C64.8669 97.2496 66.7274 95.0249 67.558 93.8851V93.9032C67.558 93.9032 67.5979 93.8301 67.6968 93.6832C67.8945 93.4071 67.9934 93.2416 67.9934 93.2416V93.1861C68.7452 91.9912 70.3879 89.2517 72.8609 84.7294C76.067 78.8828 79.1338 71.5839 79.1338 71.5839C79.1338 71.5839 79.4108 73.3677 80.3612 76.3275C80.915 78.074 82.0824 79.986 83.0124 81.8431C82.2608 82.7989 81.8054 83.3506 81.8054 83.3506C81.8054 83.3506 81.8054 83.3687 81.8246 83.3872C81.2312 84.123 80.5587 84.9136 79.8661 85.6858C77.333 88.48 74.3252 91.6793 73.9297 92.5984C73.4544 93.6832 73.5734 94.4915 74.4838 95.117C75.1563 95.5952 76.3438 95.6684 77.5902 95.5768C79.8661 95.4292 81.4688 94.9149 82.2405 94.5833C83.4671 94.1796 84.8922 93.5356 86.2378 92.6349C88.7113 90.944 90.2155 88.5171 90.0764 85.3181C89.9974 83.5532 89.3836 81.788 88.6317 80.1339C88.8496 79.8394 89.0872 79.5265 89.3048 79.2146C93.2233 73.9007 96.2507 68.0735 96.2507 68.0735C96.2507 68.0735 96.5277 69.8563 97.4773 72.8163C97.9523 74.3057 98.8823 75.9419 99.733 77.541C96.0524 80.3174 93.7771 83.535 92.9854 85.6487C91.5209 89.5649 92.6687 91.3293 94.8255 91.7346C95.7952 91.9183 97.1804 91.4951 98.2095 91.0906C99.4956 90.6861 101.039 90.0426 102.484 89.0498C104.957 87.3589 107.352 84.9868 107.194 81.7696C107.134 80.3171 106.699 78.8648 106.125 77.4676C109.231 76.2546 113.269 75.5921 118.413 76.144C129.435 77.3389 131.592 83.7367 131.176 86.4022C130.761 89.0867 128.446 90.5576 127.674 90.9987C126.902 91.4401 126.665 91.6056 126.725 91.9365C126.823 92.4144 127.179 92.3962 127.832 92.2854C128.743 92.1386 133.61 90.116 133.828 85.1705C134.145 78.9196 127.675 72.0441 116.217 72.0992ZM31.2673 98.7016C27.6267 102.397 22.5212 103.794 20.3249 102.618C17.9701 101.35 18.9001 95.9074 23.392 91.9728C26.1227 89.5831 29.645 87.377 31.98 86.0166C32.5143 85.7226 33.2862 85.2813 34.236 84.7481C34.3944 84.6567 34.4734 84.6196 34.4734 84.6196C34.6513 84.5089 34.8493 84.4173 35.0473 84.3067C36.6892 89.8957 35.1063 94.8225 31.2673 98.7016ZM57.8626 81.8981C56.5961 84.7842 53.9245 92.1383 52.3025 91.7522C50.9173 91.4212 50.066 85.814 52.0254 80.2989C53.0146 77.5226 55.112 74.2136 56.359 72.9269C58.3572 70.849 60.5537 70.1871 61.0684 71.0146C61.7608 72.0992 58.6538 80.0966 57.8626 81.8981ZM79.827 91.6425C79.293 91.8996 78.7981 92.0649 78.5607 91.9362C78.3828 91.8443 78.7785 91.4948 78.7785 91.4948C78.7785 91.4948 81.5286 88.7556 82.6172 87.505C83.2503 86.7699 83.9823 85.9056 84.7741 84.95C84.7741 85.0413 84.7933 85.1339 84.7933 85.2437C84.7743 88.535 81.3708 90.76 79.827 91.6425ZM96.766 88.0571C96.3702 87.7997 96.4291 86.9357 97.7551 84.2512C98.2699 83.2032 99.4573 81.4385 101.515 79.7471C101.752 80.4455 101.891 81.1072 101.891 81.7323C101.871 85.869 98.6852 87.4134 96.766 88.0571Z" fill="#CF649A"/>
</svg>
