<svg width="119" height="131" viewBox="0 0 119 131" fill="none" xmlns="http://www.w3.org/2000/svg">
<path d="M91.7292 51.9087C88.0107 50.4989 84.7284 47.9639 82.2587 44.5945C79.5369 40.8405 76.071 37.8215 72.1264 35.7685C68.1818 33.7156 63.8628 32.6831 59.5 32.75C53.6311 32.2924 47.8211 34.2851 43.2268 38.3311C38.6325 42.3772 35.5911 48.1798 34.7083 54.5833C36.4471 51.3806 39.064 48.8677 42.1825 47.4062C45.301 45.9448 48.7603 45.6101 52.0625 46.4504C55.7748 47.9012 59.0517 50.4509 61.5329 53.8191C64.2697 57.5432 67.7421 60.531 71.6859 62.5551C75.6297 64.5793 79.941 65.5864 84.2917 65.5C90.1605 65.9575 95.9706 63.9648 100.565 59.9188C105.159 55.8727 108.201 50.0701 109.083 43.6666C107.376 46.9076 104.768 49.4585 101.643 50.9426C98.5178 52.4267 95.0423 52.7654 91.7292 51.9087ZM27.2708 79.0912C30.9893 80.501 34.2716 83.036 36.7412 86.4054C39.4631 90.1594 42.929 93.1784 46.8736 95.2314C50.8182 97.2843 55.1372 98.3168 59.5 98.25C65.3689 98.7075 71.1789 96.7148 75.7732 92.6688C80.3675 88.6227 83.4089 82.8201 84.2917 76.4166C82.5529 79.6193 79.936 82.1322 76.8175 83.5937C73.699 85.0551 70.2397 85.3898 66.9375 84.5495C63.2252 83.0987 59.9483 80.549 57.4671 77.1808C54.7229 73.4659 51.2491 70.4847 47.307 68.4614C43.3649 66.4382 39.0573 65.4256 34.7083 65.5C28.8395 65.0424 23.0294 67.0351 18.4351 71.0811C13.8408 75.1272 10.7995 80.9298 9.91667 87.3333C11.6239 84.0923 14.2324 81.5414 17.3573 80.0573C20.4822 78.5732 23.9577 78.2345 27.2708 79.0912Z" fill="black"/>
</svg>
